<svg width="13" height="17" viewBox="0 0 13 17" fill="none" xmlns="http://www.w3.org/2000/svg">
<path d="M12.1391 5.52137C12.0528 5.59367 10.5375 6.51287 10.5375 8.55777C10.5375 10.9229 12.4651 11.7595 12.5227 11.7801C12.5131 11.8317 12.2158 12.9265 11.5061 14.0419C10.8732 15.0231 10.2114 16.0042 9.20446 16.0042C8.19752 16.0042 7.93854 15.3742 6.7781 15.3742C5.64645 15.3742 5.24364 16.0249 4.32296 16.0249C3.40228 16.0249 2.75971 15.116 2.02131 14.0006C1.16777 12.6889 0.47728 10.6543 0.47728 8.72297C0.47728 5.62457 2.34742 3.98237 4.18869 3.98237C5.16694 3.98237 5.98204 4.67437 6.59582 4.67437C7.18082 4.67437 8.09194 3.94107 9.20437 3.94107C9.6264 3.94117 11.1417 3.98257 12.1391 5.52137V5.52137ZM8.67703 2.62957C9.13732 2.04087 9.46344 1.22497 9.46344 0.409067C9.46344 0.295467 9.45387 0.181867 9.43465 0.0888672C8.68659 0.119867 7.7947 0.625968 7.25762 1.29727C6.83567 1.81367 6.44242 2.62957 6.44242 3.45587C6.44242 3.57977 6.46164 3.70377 6.47121 3.74507C6.51912 3.75537 6.59592 3.76577 6.67262 3.76577C7.34397 3.76567 8.18786 3.28027 8.67703 2.62957V2.62957Z" fill="white"/>
</svg>
